<svg width="1280" height="720" xmlns="http://www.w3.org/2000/svg" xmlns:xlink="http://www.w3.org/1999/xlink" overflow="hidden"><defs><clipPath id="clip0"><rect x="0" y="0" width="1280" height="720"/></clipPath></defs><g clip-path="url(#clip0)"><rect x="0" y="0" width="1280" height="720" fill="#FFFFFF"/><path d="M381.5 237C381.5 226.23 390.678 217.5 402 217.5 413.322 217.5 422.5 226.23 422.5 237 422.5 247.77 413.322 256.5 402 256.5 390.678 256.5 381.5 247.77 381.5 237Z" stroke="#2F528F" stroke-width="1.33333" stroke-miterlimit="8" fill="#E7E6E6" fill-rule="evenodd"/><path d="M381.5 368C381.5 357.23 390.678 348.5 402 348.5 413.322 348.5 422.5 357.23 422.5 368 422.5 378.77 413.322 387.5 402 387.5 390.678 387.5 381.5 378.77 381.5 368Z" stroke="#2F528F" stroke-width="1.33333" stroke-miterlimit="8" fill="#E7E6E6" fill-rule="evenodd"/><path d="M381.5 433.5C381.5 422.454 390.678 413.5 402 413.5 413.322 413.5 422.5 422.454 422.5 433.5 422.5 444.546 413.322 453.5 402 453.5 390.678 453.5 381.5 444.546 381.5 433.5Z" stroke="#2F528F" stroke-width="1.33333" stroke-miterlimit="8" fill="#E7E6E6" fill-rule="evenodd"/><path d="M547.5 236C547.5 225.23 556.678 216.5 568 216.5 579.322 216.5 588.5 225.23 588.5 236 588.5 246.77 579.322 255.5 568 255.5 556.678 255.5 547.5 246.77 547.5 236Z" stroke="#2F528F" stroke-width="1.33333" stroke-miterlimit="8" fill="#4472C4" fill-rule="evenodd"/><path d="M547.5 368C547.5 357.23 556.678 348.5 568 348.5 579.322 348.5 588.5 357.23 588.5 368 588.5 378.77 579.322 387.5 568 387.5 556.678 387.5 547.5 378.77 547.5 368Z" stroke="#2F528F" stroke-width="1.33333" stroke-miterlimit="8" fill="#4472C4" fill-rule="evenodd"/><path d="M547.5 37.0001C547.5 26.2305 556.678 17.5001 568 17.5001 579.322 17.5001 588.5 26.2305 588.5 37.0001 588.5 47.7696 579.322 56.5001 568 56.5001 556.678 56.5001 547.5 47.7696 547.5 37.0001Z" stroke="#2F528F" stroke-width="1.33333" stroke-miterlimit="8" fill="#4472C4" fill-rule="evenodd"/><path d="M547.5 302.5C547.5 291.454 556.678 282.5 568 282.5 579.322 282.5 588.5 291.454 588.5 302.5 588.5 313.546 579.322 322.5 568 322.5 556.678 322.5 547.5 313.546 547.5 302.5Z" stroke="#2F528F" stroke-width="1.33333" stroke-miterlimit="8" fill="#4472C4" fill-rule="evenodd"/><path d="M547.5 169.5C547.5 158.454 556.678 149.5 568 149.5 579.322 149.5 588.5 158.454 588.5 169.5 588.5 180.546 579.322 189.5 568 189.5 556.678 189.5 547.5 180.546 547.5 169.5Z" stroke="#2F528F" stroke-width="1.33333" stroke-miterlimit="8" fill="#4472C4" fill-rule="evenodd"/><path d="M547.5 433.5C547.5 422.454 556.678 413.5 568 413.5 579.322 413.5 588.5 422.454 588.5 433.5 588.5 444.546 579.322 453.5 568 453.5 556.678 453.5 547.5 444.546 547.5 433.5Z" stroke="#2F528F" stroke-width="1.33333" stroke-miterlimit="8" fill="#4472C4" fill-rule="evenodd"/><path d="M547.5 565.5C547.5 554.454 556.678 545.5 568 545.5 579.322 545.5 588.5 554.454 588.5 565.5 588.5 576.546 579.322 585.5 568 585.5 556.678 585.5 547.5 576.546 547.5 565.5Z" stroke="#2F528F" stroke-width="1.33333" stroke-miterlimit="8" fill="#4472C4" fill-rule="evenodd"/><path d="M701.5 169.5C701.5 158.454 710.454 149.5 721.5 149.5 732.546 149.5 741.5 158.454 741.5 169.5 741.5 180.546 732.546 189.5 721.5 189.5 710.454 189.5 701.5 180.546 701.5 169.5Z" stroke="#2F528F" stroke-width="1.33333" stroke-miterlimit="8" fill="#4472C4" fill-rule="evenodd"/><path d="M547.5 102.5C547.5 91.4544 556.678 82.5001 568 82.5001 579.322 82.5001 588.5 91.4544 588.5 102.5 588.5 113.546 579.322 122.5 568 122.5 556.678 122.5 547.5 113.546 547.5 102.5Z" stroke="#2F528F" stroke-width="1.33333" stroke-miterlimit="8" fill="#4472C4" fill-rule="evenodd"/><path d="M547.5 499C547.5 488.23 556.678 479.5 568 479.5 579.322 479.5 588.5 488.23 588.5 499 588.5 509.77 579.322 518.5 568 518.5 556.678 518.5 547.5 509.77 547.5 499Z" stroke="#2F528F" stroke-width="1.33333" stroke-miterlimit="8" fill="#4472C4" fill-rule="evenodd"/><path d="M701.5 237C701.5 226.23 710.454 217.5 721.5 217.5 732.546 217.5 741.5 226.23 741.5 237 741.5 247.77 732.546 256.5 721.5 256.5 710.454 256.5 701.5 247.77 701.5 237Z" stroke="#2F528F" stroke-width="1.33333" stroke-miterlimit="8" fill="#4472C4" fill-rule="evenodd"/><path d="M701.5 302.5C701.5 291.454 710.454 282.5 721.5 282.5 732.546 282.5 741.5 291.454 741.5 302.5 741.5 313.546 732.546 322.5 721.5 322.5 710.454 322.5 701.5 313.546 701.5 302.5Z" stroke="#2F528F" stroke-width="1.33333" stroke-miterlimit="8" fill="#4472C4" fill-rule="evenodd"/><path d="M701.5 368.5C701.5 357.454 710.454 348.5 721.5 348.5 732.546 348.5 741.5 357.454 741.5 368.5 741.5 379.546 732.546 388.5 721.5 388.5 710.454 388.5 701.5 379.546 701.5 368.5Z" stroke="#2F528F" stroke-width="1.33333" stroke-miterlimit="8" fill="#4472C4" fill-rule="evenodd"/><path d="M701.5 433.5C701.5 422.454 710.454 413.5 721.5 413.5 732.546 413.5 741.5 422.454 741.5 433.5 741.5 444.546 732.546 453.5 721.5 453.5 710.454 453.5 701.5 444.546 701.5 433.5Z" stroke="#2F528F" stroke-width="1.33333" stroke-miterlimit="8" fill="#4472C4" fill-rule="evenodd"/><path d="M701.5 496.5C701.5 485.454 710.454 476.5 721.5 476.5 732.546 476.5 741.5 485.454 741.5 496.5 741.5 507.546 732.546 516.5 721.5 516.5 710.454 516.5 701.5 507.546 701.5 496.5Z" stroke="#2F528F" stroke-width="1.33333" stroke-miterlimit="8" fill="#4472C4" fill-rule="evenodd"/><path d="M701.5 565.5C701.5 554.454 710.454 545.5 721.5 545.5 732.546 545.5 741.5 554.454 741.5 565.5 741.5 576.546 732.546 585.5 721.5 585.5 710.454 585.5 701.5 576.546 701.5 565.5Z" stroke="#2F528F" stroke-width="1.33333" stroke-miterlimit="8" fill="#4472C4" fill-rule="evenodd"/><path d="M701.5 630C701.5 619.231 710.454 610.5 721.5 610.5 732.546 610.5 741.5 619.231 741.5 630 741.5 640.77 732.546 649.5 721.5 649.5 710.454 649.5 701.5 640.77 701.5 630Z" stroke="#2F528F" stroke-width="1.33333" stroke-miterlimit="8" fill="#4472C4" fill-rule="evenodd"/><path d="M701.5 102.5C701.5 91.4544 710.454 82.5001 721.5 82.5001 732.546 82.5001 741.5 91.4544 741.5 102.5 741.5 113.546 732.546 122.5 721.5 122.5 710.454 122.5 701.5 113.546 701.5 102.5Z" stroke="#2F528F" stroke-width="1.33333" stroke-miterlimit="8" fill="#4472C4" fill-rule="evenodd"/><path d="M701.5 37.0001C701.5 26.2305 710.454 17.5001 721.5 17.5001 732.546 17.5001 741.5 26.2305 741.5 37.0001 741.5 47.7696 732.546 56.5001 721.5 56.5001 710.454 56.5001 701.5 47.7696 701.5 37.0001Z" stroke="#2F528F" stroke-width="1.33333" stroke-miterlimit="8" fill="#4472C4" fill-rule="evenodd"/><path d="M547.5 630C547.5 619.231 556.678 610.5 568 610.5 579.322 610.5 588.5 619.231 588.5 630 588.5 640.77 579.322 649.5 568 649.5 556.678 649.5 547.5 640.77 547.5 630Z" stroke="#2F528F" stroke-width="1.33333" stroke-miterlimit="8" fill="#4472C4" fill-rule="evenodd"/><path d="M844.5 395C844.5 384.23 853.678 375.5 865 375.5 876.322 375.5 885.5 384.23 885.5 395 885.5 405.77 876.322 414.5 865 414.5 853.678 414.5 844.5 405.77 844.5 395Z" stroke="#2F528F" stroke-width="1.33333" stroke-miterlimit="8" fill="#E2F0D9" fill-rule="evenodd"/><path d="M844.5 268C844.5 257.23 853.678 248.5 865 248.5 876.322 248.5 885.5 257.23 885.5 268 885.5 278.77 876.322 287.5 865 287.5 853.678 287.5 844.5 278.77 844.5 268Z" stroke="#2F528F" stroke-width="1.33333" stroke-miterlimit="8" fill="#E2F0D9" fill-rule="evenodd"/><path d="M844.5 330.5C844.5 319.454 853.678 310.5 865 310.5 876.322 310.5 885.5 319.454 885.5 330.5 885.5 341.546 876.322 350.5 865 350.5 853.678 350.5 844.5 341.546 844.5 330.5Z" stroke="#2F528F" stroke-width="1.33333" stroke-miterlimit="8" fill="#E2F0D9" fill-rule="evenodd"/><path d="M0 0 125.361 199.917" stroke="#000000" stroke-width="0.666667" stroke-miterlimit="8" fill="none" fill-rule="evenodd" transform="matrix(1 0 0 -1 422.5 237.417)"/><path d="M0 0 125.361 134.515" stroke="#000000" stroke-width="0.666667" stroke-miterlimit="8" fill="none" fill-rule="evenodd" transform="matrix(1 0 0 -1 422.5 237.015)"/><path d="M0 0 125.361 134.515" stroke="#000000" stroke-width="0.666667" stroke-miterlimit="8" fill="none" fill-rule="evenodd" transform="matrix(1 0 0 -1 422.5 237.015)"/><path d="M0 0 125.361 67.7938" stroke="#000000" stroke-width="0.666667" stroke-miterlimit="8" fill="none" fill-rule="evenodd" transform="matrix(1 0 0 -1 422.5 237.294)"/><path d="M0 0 125.361 1.07276" stroke="#000000" stroke-width="0.666667" stroke-miterlimit="8" fill="none" fill-rule="evenodd" transform="matrix(1 0 0 -1 422.5 236.573)"/><path d="M422.5 237.5 547.861 302.984" stroke="#000000" stroke-width="0.666667" stroke-miterlimit="8" fill="none" fill-rule="evenodd"/><path d="M422.5 237.5 547.861 368.551" stroke="#000000" stroke-width="0.666667" stroke-miterlimit="8" fill="none" fill-rule="evenodd"/><path d="M422.5 237.5 547.861 433.788" stroke="#000000" stroke-width="0.666667" stroke-miterlimit="8" fill="none" fill-rule="evenodd"/><path d="M422.5 237.5 547.861 499.355" stroke="#000000" stroke-width="0.666667" stroke-miterlimit="8" fill="none" fill-rule="evenodd"/><path d="M422.5 237.5 547.861 565.912" stroke="#000000" stroke-width="0.666667" stroke-miterlimit="8" fill="none" fill-rule="evenodd"/><path d="M422.5 237.5 547.861 630.49" stroke="#000000" stroke-width="0.666667" stroke-miterlimit="8" fill="none" fill-rule="evenodd"/><path d="M381.5 301.5C381.5 290.454 390.678 281.5 402 281.5 413.322 281.5 422.5 290.454 422.5 301.5 422.5 312.546 413.322 321.5 402 321.5 390.678 321.5 381.5 312.546 381.5 301.5Z" stroke="#2F528F" stroke-width="1.33333" stroke-miterlimit="8" fill="#E7E6E6" fill-rule="evenodd"/><path d="M0 0 112.99 0.000104987" stroke="#000000" stroke-width="0.666667" stroke-miterlimit="8" fill="none" fill-rule="evenodd" transform="matrix(1 0 0 -1 588.5 37.5002)"/><path d="M588.5 37.5001 701.49 102.902" stroke="#000000" stroke-width="0.666667" stroke-miterlimit="8" fill="none" fill-rule="evenodd"/><path d="M588.5 37.5001 701.49 169.623" stroke="#000000" stroke-width="0.666667" stroke-miterlimit="8" fill="none" fill-rule="evenodd"/><path d="M588.5 37.5001 701.489 237.417" stroke="#000000" stroke-width="0.666667" stroke-miterlimit="8" fill="none" fill-rule="evenodd"/><path d="M588.5 37.5001 701.489 302.901" stroke="#000000" stroke-width="0.666667" stroke-miterlimit="8" fill="none" fill-rule="evenodd"/><path d="M588.5 37.5001 701.489 368.922" stroke="#000000" stroke-width="0.666667" stroke-miterlimit="8" fill="none" fill-rule="evenodd"/><path d="M588.5 37.5001 701.489 433.705" stroke="#000000" stroke-width="0.666667" stroke-miterlimit="8" fill="none" fill-rule="evenodd"/><path d="M588.5 37.5001 701.49 496.839" stroke="#000000" stroke-width="0.666667" stroke-miterlimit="8" fill="none" fill-rule="evenodd"/><path d="M588.5 37.5001 701.49 565.829" stroke="#000000" stroke-width="0.666667" stroke-miterlimit="8" fill="none" fill-rule="evenodd"/><path d="M588.5 37.5001 701.49 630.406" stroke="#000000" stroke-width="0.666667" stroke-miterlimit="8" fill="none" fill-rule="evenodd"/><path d="M741.5 37.5001 844.427 268.365" stroke="#000000" stroke-width="0.666667" stroke-miterlimit="8" fill="none" fill-rule="evenodd"/><path d="M741.5 37.5001 844.428 330.613" stroke="#000000" stroke-width="0.666667" stroke-miterlimit="8" fill="none" fill-rule="evenodd"/><path d="M741.5 37.5001 844.427 395.272" stroke="#000000" stroke-width="0.666667" stroke-miterlimit="8" fill="none" fill-rule="evenodd"/><text font-family="DengXian,DengXian_MSFontService,sans-serif" font-weight="400" font-size="24" writing-mode="tb-rl" transform="translate(342.83 299)" x="6.9375" y="5.0625">输入层</text><text font-family="DengXian,DengXian_MSFontService,sans-serif" font-weight="400" font-size="24" transform="translate(600.866 676)">隐含层</text><text font-family="DengXian,DengXian_MSFontService,sans-serif" font-weight="400" font-size="24" writing-mode="tb-rl" transform="translate(912.232 299)" x="6.9375" y="5.0625">输出层</text></g></svg>